<svg width="243" height="44" viewBox="0 0 243 44" fill="none" xmlns="http://www.w3.org/2000/svg">
<path d="M0.44 0.159997H9.8L24.08 25C25.82 28.24 27.38 31.24 28.76 33.58C28.7 30.4 28.64 27.16 28.64 23.5V0.159997H35.78V43H26.36L12.74 19.66C10.76 15.82 8.84 12.4 7.46 9.82C7.52 13.06 7.58 17.02 7.58 20.56V43H0.44V0.159997ZM70.5481 33.82C68.7481 40.12 63.4081 43.84 56.0281 43.84C46.7281 43.84 40.4281 37.18 40.4281 27.4C40.4281 17.98 47.0281 11.14 56.0281 11.14C66.6481 11.14 70.9681 19.3 71.0281 28.12C71.0281 28.42 71.0281 28.9 70.9681 29.44H47.0881C47.6281 34.9 51.1081 38.26 56.0281 38.26C59.5681 38.26 62.5681 36.88 63.6481 33.82H70.5481ZM47.1481 24.52H64.1881C63.7681 20.08 61.1881 16.54 56.0281 16.54C51.1081 16.54 47.8081 19.72 47.1481 24.52ZM81.0641 43L72.1241 11.98H79.3241L83.4041 28C84.1241 30.94 84.4841 33.16 85.1441 36.22H85.2041C85.9241 33.28 86.2841 30.94 87.0041 27.76L91.0241 11.98H99.3041L103.324 27.82C103.984 30.46 104.584 33.52 105.184 36.28H105.244C105.844 33.76 106.504 30.7 107.104 27.82L111.064 11.98H118.204L109.204 43H101.164L96.9041 27.04C96.3041 24.46 95.6441 21.7 95.1641 19.42H95.0441C94.5041 22 94.0241 24.28 93.3041 26.98L89.1041 43H81.0641ZM137.84 21.28C137.48 17.8 134.72 16.42 131.9 16.42C129.14 16.42 126.8 17.98 126.8 20.14C126.8 22.3 128.66 23.56 131.84 24.34C133.22 24.7 134.6 25 135.98 25.42C141.02 26.74 144.98 29.2 144.98 34.12C144.98 40.3 138.86 43.84 132.26 43.84C126.02 43.84 119.84 40.96 119.18 33.52H126.02C126.62 36.94 128.72 38.5 132.32 38.5C135.26 38.5 138.14 37.36 138.14 34.48C138.14 31.96 135.74 31.12 133.16 30.46C131.66 30.1 130.16 29.74 128.72 29.32C123.74 28 120.08 25.18 120.08 20.38C120.08 14.74 125.66 11.14 132.02 11.14C138.68 11.14 143.78 14.56 144.5 21.28H137.84ZM156.635 7H149.375V0.159997H156.635V7ZM149.315 43V11.98H156.275V43H149.315ZM171.396 32.32C171.396 35.68 172.356 37.48 175.356 37.48H177.396V43.06L174.036 43.12C166.896 43.18 164.556 38.92 164.556 33.16V17.38H159.696V11.98H164.556V4.9L171.396 1.84V11.98H177.456V17.38H171.396V32.32ZM209.919 33.82C208.119 40.12 202.779 43.84 195.399 43.84C186.099 43.84 179.799 37.18 179.799 27.4C179.799 17.98 186.399 11.14 195.399 11.14C206.019 11.14 210.339 19.3 210.399 28.12C210.399 28.42 210.399 28.9 210.339 29.44H186.459C186.999 34.9 190.479 38.26 195.399 38.26C198.939 38.26 201.939 36.88 203.019 33.82H209.919ZM186.519 24.52H203.559C203.139 20.08 200.559 16.54 195.399 16.54C190.479 16.54 187.179 19.72 186.519 24.52ZM214.972 43V11.98H221.812V17.44C223.432 13.9 226.312 11.14 231.112 11.14C239.152 11.14 242.272 16.48 242.272 23.62V43H235.372V25.06C235.372 20.26 233.752 17.14 229.432 17.14C225.112 17.14 221.932 20.86 221.932 28.6V43H214.972Z" fill="#101828"/>
</svg>
